<mxfile host="c4b39172-e549-444f-b5ff-79656b84f13a" modified="2020-09-08T11:27:25.564Z" agent="5.0 (X11; Linux x86_64) AppleWebKit/537.36 (KHTML, like Gecko) Code/1.48.2 Chrome/78.0.3904.130 Electron/7.3.2 Safari/537.36" etag="BeCAuvu138yKqM5Uwev3" version="13.1.3">
    <diagram id="6hGFLwfOUW9BJ-s0fimq" name="Page-1">
        <mxGraphModel dx="1158" dy="798" grid="1" gridSize="10" guides="1" tooltips="1" connect="1" arrows="1" fold="1" page="1" pageScale="1" pageWidth="827" pageHeight="1169" math="0" shadow="0">
            <root>
                <mxCell id="0"/>
                <mxCell id="1" parent="0"/>
                <mxCell id="2" value="User&lt;br&gt;&lt;font color=&quot;#009999&quot;&gt;:name&lt;br&gt;&lt;/font&gt;:username&lt;br&gt;:password_digest" style="whiteSpace=wrap;html=1;aspect=fixed;fontFamily=Courier New;fontStyle=1" vertex="1" parent="1">
                    <mxGeometry x="320" y="280" width="160" height="160" as="geometry"/>
                </mxCell>
            </root>
        </mxGraphModel>
    </diagram>
</mxfile>